<?xml version="1.0" encoding="UTF-8" standalone="no"?>
<svg
   xmlns:dc="http://purl.org/dc/elements/1.1/"
   xmlns:cc="http://creativecommons.org/ns#"
   xmlns:rdf="http://www.w3.org/1999/02/22-rdf-syntax-ns#"
   xmlns:svg="http://www.w3.org/2000/svg"
   xmlns="http://www.w3.org/2000/svg"
   xmlns:sodipodi="http://sodipodi.sourceforge.net/DTD/sodipodi-0.dtd"
   xmlns:inkscape="http://www.inkscape.org/namespaces/inkscape"
   viewBox="0 0 128 128"
   version="1.1"
   id="svg18"
   sodipodi:docname="ext_icon.svg"
   inkscape:version="0.92.2 (5c3e80d, 2017-08-06)">
  <metadata
     id="metadata24">
    <rdf:RDF>
      <cc:Work
         rdf:about="">
        <dc:format>image/svg+xml</dc:format>
        <dc:type
           rdf:resource="http://purl.org/dc/dcmitype/StillImage" />
      </cc:Work>
    </rdf:RDF>
  </metadata>
  <defs
     id="defs22" />
  <sodipodi:namedview
     pagecolor="#ffffff"
     bordercolor="#666666"
     borderopacity="1"
     objecttolerance="10"
     gridtolerance="10"
     guidetolerance="10"
     inkscape:pageopacity="0"
     inkscape:pageshadow="2"
     inkscape:window-width="1920"
     inkscape:window-height="1135"
     id="namedview20"
     showgrid="false"
     inkscape:zoom="2"
     inkscape:cx="87.864407"
     inkscape:cy="64"
     inkscape:window-x="0"
     inkscape:window-y="0"
     inkscape:window-maximized="1"
     inkscape:current-layer="svg18" />
  <rect
     width="128"
     height="128"
     id="rect2"
     fill="#4c7e3a" />
  <g
     style="fill:#ffffff"
     id="g6"
     transform="matrix(1.3151,0,0,1.3151,-20.166,-20.166)">
    <path
       inkscape:connector-curvature="0"
       id="path4"
       d="M 91.344,43.844 79.156,31.656 C 77.711,30.211 74.82,29 72.75,29 h -35 C 35.68,29 34,30.68 34,32.75 v 62.5 c 0,2.0703 1.6797,3.75 3.75,3.75 h 52.5 C 92.32,99 94,97.32 94,95.25 v -45 c 0,-2.0703 -1.2109,-4.9609 -2.6562,-6.4062 z M 74,34.312 c 0.66406,0.23438 1.3281,0.58594 1.6016,0.85938 l 12.226,12.227 c 0.274,0.274 0.625,0.938 0.86,1.602 H 73.9996 Z M 89,94 H 39 V 34 H 69 V 50.25 C 69,52.32 70.68,54 72.75,54 H 89 Z" />
  </g>
  <g
     style="fill:#ffffff"
     id="g10"
     transform="matrix(0.14396,0,0,0.14396,96.296,-0.76103)">
    <path
       style="fill:#ffffff;stroke-width:4.38770008"
       inkscape:connector-curvature="0"
       id="path8"
       d="M 163.54,118.43 H 93.336 V 47.351 C 93.336,35.066 83.6831,26.29 71.398,26.29 h -0.87753 c -12.286,0 -21.061,8.3366 -21.061,21.061 v 71.08 h -72.397 c -12.285,0 -24.132,9.6529 -24.132,21.938 v 0.87753 c 0,12.285 11.847,20.622 24.132,20.622 h 68.009 v 71.08 c 0,12.285 11.408,21.061 24.132,21.061 H 70.081 c 12.286,0 23.255,-8.3366 23.255,-21.061 v -71.08 h 70.203 c 12.285,0 21.938,-9.6529 21.938,-21.938 V 139.053 c 0,-12.285 -9.6529,-20.622 -21.938,-20.622 z" />
  </g>
  <path
     inkscape:connector-curvature="0"
     style="fill:#ffffff;stroke-width:1"
     d="M 83.893887,53.460784 C 80.407971,52.512544 76.753549,52.984151 73.6038,54.782577 l -8.536323,4.889532 a 13.466512,13.466512 0 0 0 -6.380349,8.423296 l -0.242278,-0.0659 c -3.485927,-0.948243 -7.140349,-0.476637 -10.285141,1.323138 l -8.54487,4.881895 a 13.487009,13.487009 0 0 0 -6.352189,8.202608 c -0.948242,3.485923 -0.476634,7.140345 1.328091,10.286489 l 1.097862,1.918327 c 1.79977,3.144791 4.711738,5.402588 8.197665,6.350828 3.485916,0.94824 7.140339,0.47663 10.28514,-1.32313 l 8.54127,-4.888186 a 13.47676,13.47676 0 0 0 6.387074,-8.448019 l 0.290396,0.08425 c 3.471089,0.944207 7.103047,0.477111 10.228977,-1.311864 l 8.54127,-4.888185 a 13.553625,13.553625 0 0 0 5.027698,-18.482808 l -1.096527,-1.923274 a 13.47676,13.47676 0 0 0 -8.197664,-6.350836 z"
     id="path136" />
  <path
     inkscape:connector-curvature="0"
     style="fill:#4c7e3a;stroke-width:1;fill-opacity:1"
     d="m 82.548864,58.405356 c -2.076721,-0.56491 -4.369979,-0.333741 -6.395231,0.825312 l -8.541269,4.888186 a 8.4037595,8.4037595 0 0 0 -3.125835,11.491184 l 1.097861,1.918326 a 8.4037595,8.4037595 0 0 0 11.491179,3.125833 l 8.541269,-4.888185 a 8.4037595,8.4037595 0 0 0 3.125836,-11.491184 l -1.097862,-1.918326 a 8.393511,8.393511 45 0 0 -5.095948,-3.951146 z m -1.648353,3.619415 c 1.493658,0.326649 2.99414,1.467652 3.98176,3.186056 1.573005,2.748553 1.193515,5.900627 -0.853289,7.08037 l -9.138786,5.230141 c -2.050405,1.173454 -4.971615,-0.0938 -6.54461,-2.842355 -1.573005,-2.748554 -1.187224,-5.904226 0.864526,-7.082624 l 9.135185,-5.236431 a 3.5357281,3.5357281 0 0 1 2.555214,-0.335157 z M 57.09488,72.972726 c -2.07672,-0.56491 -4.369989,-0.333744 -6.395241,0.82531 l -8.539924,4.883241 A 8.4037595,8.4037595 0 0 0 39.03388,90.17246 l 1.097861,1.918327 a 8.4037595,8.4037595 0 0 0 11.491179,3.125834 l 8.539935,-4.883239 A 8.4037595,8.4037595 0 0 0 63.28869,78.842199 L 62.190829,76.923872 A 8.4037595,8.4037595 0 0 0 57.09488,72.972726 Z m -1.653309,3.618067 c 1.493658,0.326649 2.999086,1.468997 3.986717,3.187404 1.572994,2.748552 1.187224,5.904227 -0.864537,7.082622 l -9.138775,5.230144 c -2.050416,1.17345 -4.965324,-0.0974 -6.53833,-2.845957 -1.573005,-2.748554 -1.192169,-5.905573 0.858246,-7.079023 l 9.138775,-5.230144 a 3.5357281,3.5357281 0 0 1 2.557904,-0.345046 z"
     id="path138" />
  <path
     inkscape:connector-curvature="0"
     style="fill:#4c7e3a;stroke-width:1;fill-opacity:1"
     d="M 52.42148,79.396301 71.59845,68.42128 c 1.100679,-0.629922 2.8433,0.343289 3.887169,2.167271 1.043869,1.823983 1.000243,3.819464 -0.100436,4.449385 l -19.17698,10.975019 c -1.100679,0.62992 -2.84329,-0.343286 -3.887158,-2.167269 -1.043869,-1.823982 -1.000243,-3.819464 0.100435,-4.449385 z"
     id="path142" />
</svg>
